<?xml version="1.0" encoding="us-ascii" standalone="no"?><svg xmlns="http://www.w3.org/2000/svg" xmlns:xlink="http://www.w3.org/1999/xlink" contentStyleType="text/css" height="548px" preserveAspectRatio="none" style="width:756px;height:548px;background:#FFFFFF;" version="1.1" viewBox="0 0 756 548" width="756px" zoomAndPan="magnify"><defs/><g><!--cluster View--><g id="cluster_View"><path d="M119.5,6 L156.5,6 A5.25,5.25 0 0 1 160,9.5 L167,28.2969 L663.5,28.2969 A3.5,3.5 0 0 1 667,31.7969 L667,249.5 A3.5,3.5 0 0 1 663.5,253 L119.5,253 A3.5,3.5 0 0 1 116,249.5 L116,9.5 A3.5,3.5 0 0 1 119.5,6 " fill="none" style="stroke:#696969;stroke-width:1.0;"/><line style="stroke:#696969;stroke-width:1.0;" x1="116" x2="167" y1="28.2969" y2="28.2969"/><text fill="#000000" font-family="sans-serif" font-size="14" font-weight="bold" lengthAdjust="spacing" textLength="38" x="120" y="20.9951">View</text></g><!--cluster DropDowns--><g id="cluster_DropDowns"><rect fill="none" height="97" rx="3.5" ry="3.5" style="stroke:#696969;stroke-width:1.0;" width="156" x="479" y="100"/><rect fill="none" height="10" style="stroke:#696969;stroke-width:1.0;" width="15" x="615" y="105"/><rect fill="none" height="2" style="stroke:#696969;stroke-width:1.0;" width="4" x="613" y="107"/><rect fill="none" height="2" style="stroke:#696969;stroke-width:1.0;" width="4" x="613" y="111"/><text fill="#000000" font-family="sans-serif" font-size="14" font-weight="bold" lengthAdjust="spacing" textLength="91" x="511.5" y="125.9951">DropDowns</text></g><!--cluster Cards--><g id="cluster_Cards"><rect fill="none" height="164" rx="3.5" ry="3.5" style="stroke:#696969;stroke-width:1.0;" width="168" x="287" y="57"/><rect fill="none" height="10" style="stroke:#696969;stroke-width:1.0;" width="15" x="435" y="62"/><rect fill="none" height="2" style="stroke:#696969;stroke-width:1.0;" width="4" x="433" y="64"/><rect fill="none" height="2" style="stroke:#696969;stroke-width:1.0;" width="4" x="433" y="68"/><text fill="#000000" font-family="sans-serif" font-size="14" font-weight="bold" lengthAdjust="spacing" textLength="46" x="348" y="82.9951">Cards</text></g><!--cluster Card_--><g id="cluster_Card_"><rect fill="none" height="97" rx="3.5" ry="3.5" style="stroke:#696969;stroke-width:1.0;" width="120" x="311" y="100"/><rect fill="none" height="10" style="stroke:#696969;stroke-width:1.0;" width="15" x="411" y="105"/><rect fill="none" height="2" style="stroke:#696969;stroke-width:1.0;" width="4" x="409" y="107"/><rect fill="none" height="2" style="stroke:#696969;stroke-width:1.0;" width="4" x="409" y="111"/><text fill="#000000" font-family="sans-serif" font-size="14" font-weight="bold" lengthAdjust="spacing" textLength="44" x="349" y="125.9951">Card_</text></g><!--cluster Model--><g id="cluster_Model"><path d="M119.5,318 L166.5,318 A5.25,5.25 0 0 1 170,321.5 L177,340.2969 L745.5,340.2969 A3.5,3.5 0 0 1 749,343.7969 L749,427.5 A3.5,3.5 0 0 1 745.5,431 L119.5,431 A3.5,3.5 0 0 1 116,427.5 L116,321.5 A3.5,3.5 0 0 1 119.5,318 " fill="none" style="stroke:#696969;stroke-width:1.0;"/><line style="stroke:#696969;stroke-width:1.0;" x1="116" x2="177" y1="340.2969" y2="340.2969"/><text fill="#000000" font-family="sans-serif" font-size="14" font-weight="bold" lengthAdjust="spacing" textLength="48" x="120" y="332.9951">Model</text></g><!--entity DropDown_--><g id="elem_DropDown_"><rect fill="#F1F1F1" height="46.2969" rx="3.5" ry="3.5" style="stroke:#181818;stroke-width:0.5;" width="123" x="495.5" y="135"/><rect fill="#F1F1F1" height="10" style="stroke:#181818;stroke-width:0.5;" width="15" x="598.5" y="140"/><rect fill="#F1F1F1" height="2" style="stroke:#181818;stroke-width:0.5;" width="4" x="596.5" y="142"/><rect fill="#F1F1F1" height="2" style="stroke:#181818;stroke-width:0.5;" width="4" x="596.5" y="146"/><text fill="#000000" font-family="sans-serif" font-size="14" lengthAdjust="spacing" textLength="83" x="510.5" y="167.9951">DropDown_</text></g><!--entity MainMenu--><g id="elem_MainMenu"><rect fill="#F1F1F1" height="46.2969" rx="3.5" ry="3.5" style="stroke:#181818;stroke-width:0.5;" width="111" x="159.5" y="135"/><rect fill="#F1F1F1" height="10" style="stroke:#181818;stroke-width:0.5;" width="15" x="250.5" y="140"/><rect fill="#F1F1F1" height="2" style="stroke:#181818;stroke-width:0.5;" width="4" x="248.5" y="142"/><rect fill="#F1F1F1" height="2" style="stroke:#181818;stroke-width:0.5;" width="4" x="248.5" y="146"/><text fill="#000000" font-family="sans-serif" font-size="14" lengthAdjust="spacing" textLength="71" x="174.5" y="167.9951">MainMenu</text></g><!--entity Chart_--><g id="elem_Chart_"><rect fill="#F1F1F1" height="46.2969" rx="3.5" ry="3.5" style="stroke:#181818;stroke-width:0.5;" width="87" x="327.5" y="135"/><rect fill="#F1F1F1" height="10" style="stroke:#181818;stroke-width:0.5;" width="15" x="394.5" y="140"/><rect fill="#F1F1F1" height="2" style="stroke:#181818;stroke-width:0.5;" width="4" x="392.5" y="142"/><rect fill="#F1F1F1" height="2" style="stroke:#181818;stroke-width:0.5;" width="4" x="392.5" y="146"/><text fill="#000000" font-family="sans-serif" font-size="14" lengthAdjust="spacing" textLength="47" x="342.5" y="167.9951">Chart_</text></g><!--entity Fetcher--><g id="elem_Fetcher"><rect fill="#F1F1F1" height="46.2969" rx="3.5" ry="3.5" style="stroke:#181818;stroke-width:0.5;" width="96" x="159" y="361"/><rect fill="#F1F1F1" height="10" style="stroke:#181818;stroke-width:0.5;" width="15" x="235" y="366"/><rect fill="#F1F1F1" height="2" style="stroke:#181818;stroke-width:0.5;" width="4" x="233" y="368"/><rect fill="#F1F1F1" height="2" style="stroke:#181818;stroke-width:0.5;" width="4" x="233" y="372"/><text fill="#000000" font-family="sans-serif" font-size="14" lengthAdjust="spacing" textLength="56" x="174" y="393.9951">Fetcher</text></g><!--entity Pipeline_--><g id="elem_Pipeline_"><rect fill="#F1F1F1" height="46.2969" rx="3.5" ry="3.5" style="stroke:#181818;stroke-width:0.5;" width="105" x="290.5" y="361"/><rect fill="#F1F1F1" height="10" style="stroke:#181818;stroke-width:0.5;" width="15" x="375.5" y="366"/><rect fill="#F1F1F1" height="2" style="stroke:#181818;stroke-width:0.5;" width="4" x="373.5" y="368"/><rect fill="#F1F1F1" height="2" style="stroke:#181818;stroke-width:0.5;" width="4" x="373.5" y="372"/><text fill="#000000" font-family="sans-serif" font-size="14" lengthAdjust="spacing" textLength="65" x="305.5" y="393.9951">Pipeline_</text></g><!--entity PipelineProcessors--><g id="elem_PipelineProcessors"><rect fill="#F1F1F1" height="46.2969" rx="3.5" ry="3.5" style="stroke:#181818;stroke-width:0.5;" width="175" x="430.5" y="361"/><rect fill="#F1F1F1" height="10" style="stroke:#181818;stroke-width:0.5;" width="15" x="585.5" y="366"/><rect fill="#F1F1F1" height="2" style="stroke:#181818;stroke-width:0.5;" width="4" x="583.5" y="368"/><rect fill="#F1F1F1" height="2" style="stroke:#181818;stroke-width:0.5;" width="4" x="583.5" y="372"/><text fill="#000000" font-family="sans-serif" font-size="14" lengthAdjust="spacing" textLength="135" x="445.5" y="393.9951">PipelineProcessors</text></g><!--entity Cache--><g id="elem_Cache"><rect fill="#F1F1F1" height="46.2969" rx="3.5" ry="3.5" style="stroke:#181818;stroke-width:0.5;" width="84" x="641" y="361"/><rect fill="#F1F1F1" height="10" style="stroke:#181818;stroke-width:0.5;" width="15" x="705" y="366"/><rect fill="#F1F1F1" height="2" style="stroke:#181818;stroke-width:0.5;" width="4" x="703" y="368"/><rect fill="#F1F1F1" height="2" style="stroke:#181818;stroke-width:0.5;" width="4" x="703" y="372"/><text fill="#000000" font-family="sans-serif" font-size="14" lengthAdjust="spacing" textLength="44" x="656" y="393.9951">Cache</text></g><!--entity Url--><g id="elem_Url"><rect fill="#F1F1F1" height="46.2969" rx="3.5" ry="3.5" style="stroke:#181818;stroke-width:0.5;" width="59" x="691.5" y="135"/><rect fill="#F1F1F1" height="10" style="stroke:#181818;stroke-width:0.5;" width="15" x="730.5" y="140"/><rect fill="#F1F1F1" height="2" style="stroke:#181818;stroke-width:0.5;" width="4" x="728.5" y="142"/><rect fill="#F1F1F1" height="2" style="stroke:#181818;stroke-width:0.5;" width="4" x="728.5" y="146"/><text fill="#000000" font-family="sans-serif" font-size="14" lengthAdjust="spacing" textLength="19" x="706.5" y="167.9951">Url</text></g><g id="elem_GMN19"><path d="M6,489.5 L6,537.8984 A3.5,3.5 0 0 0 9.5,541.3984 L238.5,541.3984 A3.5,3.5 0 0 0 242,537.8984 L242,496 L232,486 L9.5,486 A3.5,3.5 0 0 0 6,489.5 " fill="#7FFFD4" style="stroke:#454645;stroke-width:1.5;"/><path d="M232,486 L232,494.25 A1.75,1.75 0 0 0 233.75,496 L242,496 L232,486 " fill="#7FFFD4" style="stroke:#454645;stroke-width:1.0;"/><text fill="#454645" font-family="sans-serif" font-size="13" lengthAdjust="spacing" textLength="215" x="12" y="503.0669">"_" means, it's a WebComponent.</text><text fill="#454645" font-family="sans-serif" font-size="13" lengthAdjust="spacing" textLength="189" x="12" y="518.1997">Some PipelineProcessors are,</text><text fill="#454645" font-family="sans-serif" font-size="13" lengthAdjust="spacing" textLength="90" x="12" y="533.3325">some are not.</text></g><!--link Fetcher to Pipeline_--><g id="link_Fetcher_Pipeline_"><path codeLine="35" d="M255.078,384 C265.119,384 275.161,384 285.202,384 " fill="none" id="Fetcher-to-Pipeline_" style="stroke:#454645;stroke-width:1.0;"/><polygon fill="#454645" points="290.453,384,281.453,380,285.453,384,281.453,388,290.453,384" style="stroke:#454645;stroke-width:1.0;"/></g><!--link Pipeline_ to Cache--><g id="link_Pipeline__Cache"><path codeLine="36" d="M355.012,360.79 C369.213,336.321 395.423,299.429 430.5,285.5 C466.644,271.148 569.356,271.148 605.5,285.5 C636.972,297.997 658.82,331.701 671.115,356.21 " fill="none" id="Pipeline_-to-Cache" style="stroke:#454645;stroke-width:1.0;"/><polygon fill="#454645" points="673.446,360.98,673.0868,351.1377,671.25,356.488,665.8997,354.6513,673.446,360.98" style="stroke:#454645;stroke-width:1.0;"/></g><!--link Pipeline_ to PipelineProcessors--><g id="link_Pipeline__PipelineProcessors"><path codeLine="37" d="M395.637,384 C405.405,384 415.174,384 424.943,384 " fill="none" id="Pipeline_-to-PipelineProcessors" style="stroke:#454645;stroke-width:1.0;"/><polygon fill="#454645" points="430.051,384,421.051,380,425.051,384,421.051,388,430.051,384" style="stroke:#454645;stroke-width:1.0;"/></g><!--link View to Model--><g id="link_View_Model"><path codeLine="39" d="M124,253.3017 C124,254.1401 124,254.9798 124,255.8207 C124,257.5025 124,259.189 124,260.8786 C124,264.2577 124,267.6493 124,271.0408 C124,284.6067 124,298.1718 124,310.9401 C124,312.5361 124,314.1197 124,315.6892 C124,316.0816 124,316.4732 124,316.8638 C124,317.0591 124,317.2542 124,317.449 " fill="none" id="View-to-Model" style="stroke:#454645;stroke-width:1.0;"/><polygon fill="#454645" points="124,317.449,128,308.449,124,312.449,120,308.449,124,317.449" style="stroke:#454645;stroke-width:1.0;"/><text fill="#000000" font-family="sans-serif" font-size="13" lengthAdjust="spacing" textLength="75" x="125" y="290.0669">depends on</text></g><!--link Model to GMN19--><g id="link_Model_GMN19"><path d="M124,431.0892 C124,431.2551 124,431.4211 124,431.5873 C124,431.9198 124,432.2529 124,432.5866 C124,433.2541 124,433.9241 124,434.5964 C124,435.9408 124,437.2941 124,438.6537 C124,444.0921 124,449.6311 124,455.1068 C124,466.0584 124,476.7572 124,485.8931 " fill="none" id="Model-GMN19" style="stroke:#454645;stroke-width:1.0;stroke-dasharray:7.0,7.0;"/></g><!--
  
@startuml components


package View {
  component DropDowns {
    component DropDown_ {
    }
  }

  component MainMenu {
  }

  component Cards {
    component Card_ {
      component Chart_ {
      }
    }
  }
}

package Model {
  component Fetcher {
  }
  component Pipeline_ {
  }
  component PipelineProcessors {
  }
  component Cache {
  }
}

component Url {
}

Fetcher -> Pipeline_
Pipeline_ -> Cache
Pipeline_ -> PipelineProcessors

View \-\-> Model: depends on


note bottom of Model
"_" means, it's a WebComponent.
Some PipelineProcessors are,
some are not.
end note

@enduml


--></g></svg>