<?xml version="1.0" encoding="UTF-8" standalone="no"?><svg xmlns="http://www.w3.org/2000/svg" xmlns:xlink="http://www.w3.org/1999/xlink" contentScriptType="application/ecmascript" contentStyleType="text/css" height="550px" preserveAspectRatio="none" style="width:755px;height:550px;" version="1.1" viewBox="0 0 755 550" width="755px" zoomAndPan="magnify"><defs><filter height="300%" id="fk8kgs2xtojzo" width="300%" x="-1" y="-1"><feGaussianBlur result="blurOut" stdDeviation="2.0"/><feColorMatrix in="blurOut" result="blurOut2" type="matrix" values="0 0 0 0 0 0 0 0 0 0 0 0 0 0 0 0 0 0 .4 0"/><feOffset dx="4.0" dy="4.0" in="blurOut2" result="blurOut3"/><feBlend in="SourceGraphic" in2="blurOut3" mode="normal"/></filter></defs><g><!--MD5=[e320b41f2d43b11d6de1346cab4ea5fc]
cluster View--><polygon fill="#FFFFFF" filter="url(#fk8kgs2xtojzo)" points="115,6,160,6,167,28.2969,659,28.2969,659,253,115,253,115,6" style="stroke:#000000;stroke-width:1.5;"/><line style="stroke:#000000;stroke-width:1.5;" x1="115" x2="167" y1="28.2969" y2="28.2969"/><text fill="#000000" font-family="sans-serif" font-size="14" font-weight="bold" lengthAdjust="spacing" textLength="39" x="119" y="20.9951">View</text><!--MD5=[2989378440867d1b13e91c321b10ee96]
cluster DropDowns--><rect fill="#FFFFFF" filter="url(#fk8kgs2xtojzo)" height="97" style="stroke:#000000;stroke-width:1.5;" width="154" x="473" y="100"/><rect fill="#FFFFFF" height="10" style="stroke:#000000;stroke-width:1.5;" width="15" x="607" y="105"/><rect fill="#FFFFFF" height="2" style="stroke:#000000;stroke-width:1.5;" width="4" x="605" y="107"/><rect fill="#FFFFFF" height="2" style="stroke:#000000;stroke-width:1.5;" width="4" x="605" y="111"/><text fill="#000000" font-family="sans-serif" font-size="14" font-weight="bold" lengthAdjust="spacing" textLength="92" x="504" y="125.9951">DropDowns</text><!--MD5=[b2d8dd16e98fb2282b816f7db019e7ea]
cluster Cards--><rect fill="#FFFFFF" filter="url(#fk8kgs2xtojzo)" height="164" style="stroke:#000000;stroke-width:1.5;" width="164" x="285" y="57"/><rect fill="#FFFFFF" height="10" style="stroke:#000000;stroke-width:1.5;" width="15" x="429" y="62"/><rect fill="#FFFFFF" height="2" style="stroke:#000000;stroke-width:1.5;" width="4" x="427" y="64"/><rect fill="#FFFFFF" height="2" style="stroke:#000000;stroke-width:1.5;" width="4" x="427" y="68"/><text fill="#000000" font-family="sans-serif" font-size="14" font-weight="bold" lengthAdjust="spacing" textLength="46" x="344" y="82.9951">Cards</text><!--MD5=[4009100477e7d8ebb5cc7220793724ec]
cluster Card_--><rect fill="#FFFFFF" filter="url(#fk8kgs2xtojzo)" height="97" style="stroke:#000000;stroke-width:1.5;" width="116" x="309" y="100"/><rect fill="#FFFFFF" height="10" style="stroke:#000000;stroke-width:1.5;" width="15" x="405" y="105"/><rect fill="#FFFFFF" height="2" style="stroke:#000000;stroke-width:1.5;" width="4" x="403" y="107"/><rect fill="#FFFFFF" height="2" style="stroke:#000000;stroke-width:1.5;" width="4" x="403" y="111"/><text fill="#000000" font-family="sans-serif" font-size="14" font-weight="bold" lengthAdjust="spacing" textLength="44" x="345" y="125.9951">Card_</text><!--MD5=[15636c1ca4a123c16a2a1a8e90aca7a9]
cluster Model--><polygon fill="#FFFFFF" filter="url(#fk8kgs2xtojzo)" points="115,318,168,318,175,340.2969,738,340.2969,738,431,115,431,115,318" style="stroke:#000000;stroke-width:1.5;"/><line style="stroke:#000000;stroke-width:1.5;" x1="115" x2="175" y1="340.2969" y2="340.2969"/><text fill="#000000" font-family="sans-serif" font-size="14" font-weight="bold" lengthAdjust="spacing" textLength="47" x="119" y="332.9951">Model</text><!--MD5=[4c2a6e3acc33bd21b217e6bb11e72010]
entity DropDown_--><rect fill="#FFFFFF" filter="url(#fk8kgs2xtojzo)" height="46.2969" style="stroke:#A80036;stroke-width:1.5;" width="121" x="489.5" y="135"/><rect fill="#FFFFFF" height="10" style="stroke:#A80036;stroke-width:1.5;" width="15" x="590.5" y="140"/><rect fill="#FFFFFF" height="2" style="stroke:#A80036;stroke-width:1.5;" width="4" x="588.5" y="142"/><rect fill="#FFFFFF" height="2" style="stroke:#A80036;stroke-width:1.5;" width="4" x="588.5" y="146"/><text fill="#000000" font-family="sans-serif" font-size="14" lengthAdjust="spacing" textLength="81" x="504.5" y="167.9951">DropDown_</text><!--MD5=[618dbba52d993b4838fe419fa0c4ec61]
entity MainMenu--><rect fill="#FFFFFF" filter="url(#fk8kgs2xtojzo)" height="46.2969" style="stroke:#A80036;stroke-width:1.5;" width="111" x="158.5" y="135"/><rect fill="#FFFFFF" height="10" style="stroke:#A80036;stroke-width:1.5;" width="15" x="249.5" y="140"/><rect fill="#FFFFFF" height="2" style="stroke:#A80036;stroke-width:1.5;" width="4" x="247.5" y="142"/><rect fill="#FFFFFF" height="2" style="stroke:#A80036;stroke-width:1.5;" width="4" x="247.5" y="146"/><text fill="#000000" font-family="sans-serif" font-size="14" lengthAdjust="spacing" textLength="71" x="173.5" y="167.9951">MainMenu</text><!--MD5=[299e05bc4826bca11d48ef5b4ce276e2]
entity Chart_--><rect fill="#FFFFFF" filter="url(#fk8kgs2xtojzo)" height="46.2969" style="stroke:#A80036;stroke-width:1.5;" width="84" x="325" y="135"/><rect fill="#FFFFFF" height="10" style="stroke:#A80036;stroke-width:1.5;" width="15" x="389" y="140"/><rect fill="#FFFFFF" height="2" style="stroke:#A80036;stroke-width:1.5;" width="4" x="387" y="142"/><rect fill="#FFFFFF" height="2" style="stroke:#A80036;stroke-width:1.5;" width="4" x="387" y="146"/><text fill="#000000" font-family="sans-serif" font-size="14" lengthAdjust="spacing" textLength="44" x="340" y="167.9951">Chart_</text><!--MD5=[f5e88d4a97e9e158b7d3f6a550dfae70]
entity Fetcher--><rect fill="#FFFFFF" filter="url(#fk8kgs2xtojzo)" height="46.2969" style="stroke:#A80036;stroke-width:1.5;" width="93" x="158.5" y="361"/><rect fill="#FFFFFF" height="10" style="stroke:#A80036;stroke-width:1.5;" width="15" x="231.5" y="366"/><rect fill="#FFFFFF" height="2" style="stroke:#A80036;stroke-width:1.5;" width="4" x="229.5" y="368"/><rect fill="#FFFFFF" height="2" style="stroke:#A80036;stroke-width:1.5;" width="4" x="229.5" y="372"/><text fill="#000000" font-family="sans-serif" font-size="14" lengthAdjust="spacing" textLength="53" x="173.5" y="393.9951">Fetcher</text><!--MD5=[7f9f4711078368d3dc6cd9fa3410ab25]
entity Pipeline_--><rect fill="#FFFFFF" filter="url(#fk8kgs2xtojzo)" height="46.2969" style="stroke:#A80036;stroke-width:1.5;" width="101" x="286.5" y="361"/><rect fill="#FFFFFF" height="10" style="stroke:#A80036;stroke-width:1.5;" width="15" x="367.5" y="366"/><rect fill="#FFFFFF" height="2" style="stroke:#A80036;stroke-width:1.5;" width="4" x="365.5" y="368"/><rect fill="#FFFFFF" height="2" style="stroke:#A80036;stroke-width:1.5;" width="4" x="365.5" y="372"/><text fill="#000000" font-family="sans-serif" font-size="14" lengthAdjust="spacing" textLength="61" x="301.5" y="393.9951">Pipeline_</text><!--MD5=[bc6ec2dece2ccb258938d9195ba099c8]
entity PipelineProcessors--><rect fill="#FFFFFF" filter="url(#fk8kgs2xtojzo)" height="46.2969" style="stroke:#A80036;stroke-width:1.5;" width="172" x="423" y="361"/><rect fill="#FFFFFF" height="10" style="stroke:#A80036;stroke-width:1.5;" width="15" x="575" y="366"/><rect fill="#FFFFFF" height="2" style="stroke:#A80036;stroke-width:1.5;" width="4" x="573" y="368"/><rect fill="#FFFFFF" height="2" style="stroke:#A80036;stroke-width:1.5;" width="4" x="573" y="372"/><text fill="#000000" font-family="sans-serif" font-size="14" lengthAdjust="spacing" textLength="132" x="438" y="393.9951">PipelineProcessors</text><!--MD5=[7f2f8f021ba496bad1f94a1981c7f515]
entity Cache--><rect fill="#FFFFFF" filter="url(#fk8kgs2xtojzo)" height="46.2969" style="stroke:#A80036;stroke-width:1.5;" width="84" x="630" y="361"/><rect fill="#FFFFFF" height="10" style="stroke:#A80036;stroke-width:1.5;" width="15" x="694" y="366"/><rect fill="#FFFFFF" height="2" style="stroke:#A80036;stroke-width:1.5;" width="4" x="692" y="368"/><rect fill="#FFFFFF" height="2" style="stroke:#A80036;stroke-width:1.5;" width="4" x="692" y="372"/><text fill="#000000" font-family="sans-serif" font-size="14" lengthAdjust="spacing" textLength="44" x="645" y="393.9951">Cache</text><!--MD5=[78504a686ec0d5d0664efa6ee46c949a]
entity Url--><rect fill="#FFFFFF" filter="url(#fk8kgs2xtojzo)" height="46.2969" style="stroke:#A80036;stroke-width:1.5;" width="58" x="683" y="135"/><rect fill="#FFFFFF" height="10" style="stroke:#A80036;stroke-width:1.5;" width="15" x="721" y="140"/><rect fill="#FFFFFF" height="2" style="stroke:#A80036;stroke-width:1.5;" width="4" x="719" y="142"/><rect fill="#FFFFFF" height="2" style="stroke:#A80036;stroke-width:1.5;" width="4" x="719" y="146"/><text fill="#000000" font-family="sans-serif" font-size="14" lengthAdjust="spacing" textLength="18" x="698" y="167.9951">Url</text><path d="M6,486 L6,541.3984 L240,541.3984 L240,496 L230,486 L6,486 " fill="#FBFB77" filter="url(#fk8kgs2xtojzo)" style="stroke:#A80036;stroke-width:1.0;"/><path d="M230,486 L230,496 L240,496 L230,486 " fill="#FBFB77" style="stroke:#A80036;stroke-width:1.0;"/><text fill="#000000" font-family="sans-serif" font-size="13" lengthAdjust="spacing" textLength="213" x="12" y="503.0669">"_" means, it's a WebComponent.</text><text fill="#000000" font-family="sans-serif" font-size="13" lengthAdjust="spacing" textLength="190" x="12" y="518.1997">Some PipelineProcessors are,</text><text fill="#000000" font-family="sans-serif" font-size="13" lengthAdjust="spacing" textLength="90" x="12" y="533.3325">some are not.</text><!--MD5=[38e8dd14b00f6d076db5ff0fc1e1bf16]
link Fetcher to Pipeline_--><path d="M251.66,384 C261.5,384 271.35,384 281.19,384 " fill="none" id="Fetcher-to-Pipeline_" style="stroke:#A80036;stroke-width:1.0;"/><polygon fill="#A80036" points="286.33,384,277.33,380,281.33,384,277.33,388,286.33,384" style="stroke:#A80036;stroke-width:1.0;"/><!--MD5=[590d9e57fa923bebd6444dacd1961b44]
link Pipeline_ to Cache--><path d="M348.79,360.76 C362.75,336.27 388.6,299.36 423.5,285.5 C459.02,271.39 559.98,271.39 595.5,285.5 C626.82,297.94 648.33,331.65 660.38,356.18 " fill="none" id="Pipeline_-to-Cache" style="stroke:#A80036;stroke-width:1.0;"/><polygon fill="#A80036" points="662.67,360.96,662.3987,351.1149,660.5142,356.4486,655.1805,354.5641,662.67,360.96" style="stroke:#A80036;stroke-width:1.0;"/><!--MD5=[c7d82abc17ea63cc82360dc5cd2ef56a]
link Pipeline_ to PipelineProcessors--><path d="M387.73,384 C397.68,384 407.63,384 417.58,384 " fill="none" id="Pipeline_-to-PipelineProcessors" style="stroke:#A80036;stroke-width:1.0;"/><polygon fill="#A80036" points="422.78,384,413.78,380,417.78,384,413.78,388,422.78,384" style="stroke:#A80036;stroke-width:1.0;"/><!--MD5=[6137f4216c2e3190e1b396a4f3f0263e]
link View to Model--><path d="M123,253.3021 C123,254.1405 123,254.9803 123,255.8212 C123,257.503 123,259.1895 123,260.8791 C123,264.2582 123,267.6498 123,271.0413 C123,284.6072 123,298.1723 123,310.9404 C123,312.5364 123,314.1199 123,315.6895 C123,316.0819 123,316.4734 123,316.864 C123,317.0593 123,317.2544 123,317.4493 " fill="none" id="View-to-Model" style="stroke:#A80036;stroke-width:1.0;"/><polygon fill="#A80036" points="123,317.4493,127,308.4493,123,312.4493,119,308.4493,123,317.4493" style="stroke:#A80036;stroke-width:1.0;"/><text fill="#000000" font-family="sans-serif" font-size="13" lengthAdjust="spacing" textLength="75" x="124" y="290.0669">depends on</text><!--MD5=[8b7c61bb43826e342f2213c6004c90e6]
link Model to GMN19--><path d="M123,431.0888 C123,431.2546 123,431.4207 123,431.5869 C123,431.9193 123,432.2524 123,432.5862 C123,433.2537 123,433.9237 123,434.5959 C123,435.9403 123,437.2936 123,438.6532 C123,444.0914 123,449.6302 123,455.1058 C123,466.0569 123,476.755 123,485.89 " fill="none" id="Model-GMN19" style="stroke:#A80036;stroke-width:1.0;stroke-dasharray:7.0,7.0;"/><!--MD5=[b8fad9954711fb2fc4cf0182be1b1948]
@startuml components


package View {
  component DropDowns {
    component DropDown_ {
    }
  }

  component MainMenu {
  }

  component Cards {
    component Card_ {
      component Chart_ {
      }
    }
  }
}

package Model {
  component Fetcher {
  }
  component Pipeline_ {
  }
  component PipelineProcessors {
  }
  component Cache {
  }
}

component Url {
}

Fetcher -> Pipeline_
Pipeline_ -> Cache
Pipeline_ -> PipelineProcessors

View - -> Model: depends on


note bottom of Model
"_" means, it's a WebComponent.
Some PipelineProcessors are,
some are not.
end note

@enduml

PlantUML version 1.2021.00(Sun Jan 10 11:25:05 CET 2021)
(MIT source distribution)
Java Runtime: OpenJDK Runtime Environment
JVM: OpenJDK 64-Bit Server VM
Default Encoding: UTF-8
Language: en
Country: GB
--></g></svg>