<?xml version="1.0" encoding="UTF-8" standalone="no"?><svg xmlns="http://www.w3.org/2000/svg" xmlns:xlink="http://www.w3.org/1999/xlink" contentScriptType="application/ecmascript" contentStyleType="text/css" height="921px" preserveAspectRatio="none" style="width:1711px;height:921px;" version="1.1" viewBox="0 0 1711 921" width="1711px" zoomAndPan="magnify"><defs><filter height="300%" id="fuv0frx8bo4a" width="300%" x="-1" y="-1"><feGaussianBlur result="blurOut" stdDeviation="2.0"/><feColorMatrix in="blurOut" result="blurOut2" type="matrix" values="0 0 0 0 0 0 0 0 0 0 0 0 0 0 0 0 0 0 .4 0"/><feOffset dx="4.0" dy="4.0" in="blurOut2" result="blurOut3"/><feBlend in="SourceGraphic" in2="blurOut3" mode="normal"/></filter></defs><g><!--MD5=[e320b41f2d43b11d6de1346cab4ea5fc]
cluster View--><polygon fill="#FFFFFF" filter="url(#fuv0frx8bo4a)" points="16,234.58,61,234.58,68,256.8769,938,256.8769,938,726.58,16,726.58,16,234.58" style="stroke:#000000;stroke-width:1.5;"/><line style="stroke:#000000;stroke-width:1.5;" x1="16" x2="68" y1="256.8769" y2="256.8769"/><text fill="#000000" font-family="sans-serif" font-size="14" font-weight="bold" lengthAdjust="spacing" textLength="39" x="20" y="249.5751">View</text><!--MD5=[bb2be780243ae1b1b2d733b4bcc355f7]
cluster eclLikeHeroBanner--><rect fill="#FFFFFF" filter="url(#fuv0frx8bo4a)" height="97" style="stroke:#000000;stroke-width:1.5;" width="240" x="658" y="328.58"/><rect fill="#FFFFFF" height="10" style="stroke:#000000;stroke-width:1.5;" width="15" x="878" y="333.58"/><rect fill="#FFFFFF" height="2" style="stroke:#000000;stroke-width:1.5;" width="4" x="876" y="335.58"/><rect fill="#FFFFFF" height="2" style="stroke:#000000;stroke-width:1.5;" width="4" x="876" y="339.58"/><text fill="#000000" font-family="sans-serif" font-size="14" font-weight="bold" lengthAdjust="spacing" textLength="149" x="703.5" y="354.5751">eclLikeHeroBanner</text><!--MD5=[ca4b19208bd672832559a970540e55a9]
cluster MainMenu--><rect fill="#FFFFFF" filter="url(#fuv0frx8bo4a)" height="164" style="stroke:#000000;stroke-width:1.5;" width="244" x="390" y="285.58"/><rect fill="#FFFFFF" height="10" style="stroke:#000000;stroke-width:1.5;" width="15" x="614" y="290.58"/><rect fill="#FFFFFF" height="2" style="stroke:#000000;stroke-width:1.5;" width="4" x="612" y="292.58"/><rect fill="#FFFFFF" height="2" style="stroke:#000000;stroke-width:1.5;" width="4" x="612" y="296.58"/><text fill="#000000" font-family="sans-serif" font-size="14" font-weight="bold" lengthAdjust="spacing" textLength="79" x="472.5" y="311.5751">MainMenu</text><!--MD5=[52b0ed41cd28ba9a7958b518eaee16cc]
cluster eclLikeMenu_--><rect fill="#FFFFFF" filter="url(#fuv0frx8bo4a)" height="97" style="stroke:#000000;stroke-width:1.5;" width="196" x="414" y="328.58"/><rect fill="#FFFFFF" height="10" style="stroke:#000000;stroke-width:1.5;" width="15" x="590" y="333.58"/><rect fill="#FFFFFF" height="2" style="stroke:#000000;stroke-width:1.5;" width="4" x="588" y="335.58"/><rect fill="#FFFFFF" height="2" style="stroke:#000000;stroke-width:1.5;" width="4" x="588" y="339.58"/><text fill="#000000" font-family="sans-serif" font-size="14" font-weight="bold" lengthAdjust="spacing" textLength="105" x="459.5" y="354.5751">eclLikeMenu_</text><!--MD5=[b2d8dd16e98fb2282b816f7db019e7ea]
cluster Cards--><rect fill="#FFFFFF" filter="url(#fuv0frx8bo4a)" height="196" style="stroke:#000000;stroke-width:1.5;" width="440" x="48" y="498.58"/><rect fill="#FFFFFF" height="10" style="stroke:#000000;stroke-width:1.5;" width="15" x="468" y="503.58"/><rect fill="#FFFFFF" height="2" style="stroke:#000000;stroke-width:1.5;" width="4" x="466" y="505.58"/><rect fill="#FFFFFF" height="2" style="stroke:#000000;stroke-width:1.5;" width="4" x="466" y="509.58"/><text fill="#000000" font-family="sans-serif" font-size="14" font-weight="bold" lengthAdjust="spacing" textLength="46" x="245" y="524.5751">Cards</text><!--MD5=[4009100477e7d8ebb5cc7220793724ec]
cluster Card_--><rect fill="#FFFFFF" filter="url(#fuv0frx8bo4a)" height="113" style="stroke:#000000;stroke-width:1.5;" width="151" x="305" y="549.58"/><rect fill="#FFFFFF" height="10" style="stroke:#000000;stroke-width:1.5;" width="15" x="436" y="554.58"/><rect fill="#FFFFFF" height="2" style="stroke:#000000;stroke-width:1.5;" width="4" x="434" y="556.58"/><rect fill="#FFFFFF" height="2" style="stroke:#000000;stroke-width:1.5;" width="4" x="434" y="560.58"/><text fill="#000000" font-family="sans-serif" font-size="14" font-weight="bold" lengthAdjust="spacing" textLength="44" x="358.5" y="575.5751">Card_</text><!--MD5=[72e444dd84a107dc9552adecbceb9b34]
cluster selectBoxes--><rect fill="#FFFFFF" filter="url(#fuv0frx8bo4a)" height="113" style="stroke:#000000;stroke-width:1.5;" width="302" x="56" y="320.58"/><rect fill="#FFFFFF" height="10" style="stroke:#000000;stroke-width:1.5;" width="15" x="338" y="325.58"/><rect fill="#FFFFFF" height="2" style="stroke:#000000;stroke-width:1.5;" width="4" x="336" y="327.58"/><rect fill="#FFFFFF" height="2" style="stroke:#000000;stroke-width:1.5;" width="4" x="336" y="331.58"/><text fill="#000000" font-family="sans-serif" font-size="14" font-weight="bold" lengthAdjust="spacing" textLength="96" x="159" y="346.5751">selectBoxes</text><!--MD5=[15636c1ca4a123c16a2a1a8e90aca7a9]
cluster Model--><polygon fill="#FFFFFF" filter="url(#fuv0frx8bo4a)" points="978,549.58,1031,549.58,1038,571.8769,1694,571.8769,1694,662.58,978,662.58,978,549.58" style="stroke:#000000;stroke-width:1.5;"/><line style="stroke:#000000;stroke-width:1.5;" x1="978" x2="1038" y1="571.8769" y2="571.8769"/><text fill="#000000" font-family="sans-serif" font-size="14" font-weight="bold" lengthAdjust="spacing" textLength="47" x="982" y="564.5751">Model</text><!--MD5=[54bb6d7a037149ef75f792f06aa0aa50]
cluster Common--><polygon fill="#FFFFFF" filter="url(#fuv0frx8bo4a)" points="1241,56.58,1316,56.58,1323,78.8769,1438,78.8769,1438,169.58,1241,169.58,1241,56.58" style="stroke:#000000;stroke-width:1.5;"/><line style="stroke:#000000;stroke-width:1.5;" x1="1241" x2="1323" y1="78.8769" y2="78.8769"/><text fill="#000000" font-family="sans-serif" font-size="14" font-weight="bold" lengthAdjust="spacing" textLength="69" x="1245" y="71.5751">Common</text><polygon fill="#FFFFFF" filter="url(#fuv0frx8bo4a)" points="902,96.08,944,96.08,951,118.3769,958,118.3769,958,148.6738,902,148.6738,902,96.08" style="stroke:#000000;stroke-width:1.5;"/><line style="stroke:#000000;stroke-width:1.5;" x1="902" x2="951" y1="118.3769" y2="118.3769"/><text fill="#000000" font-family="sans-serif" font-size="14" font-weight="bold" lengthAdjust="spacing" textLength="36" x="906" y="111.0751">Main</text><!--MD5=[da0313d0064701e95eff61d1185e58f7]
entity Original_ECLHeroBanner--><rect fill="#FFFFFF" filter="url(#fuv0frx8bo4a)" height="46.2969" style="stroke:#A80036;stroke-width:1.5;" width="207" x="674.5" y="363.58"/><rect fill="#FFFFFF" height="10" style="stroke:#A80036;stroke-width:1.5;" width="15" x="861.5" y="368.58"/><rect fill="#FFFFFF" height="2" style="stroke:#A80036;stroke-width:1.5;" width="4" x="859.5" y="370.58"/><rect fill="#FFFFFF" height="2" style="stroke:#A80036;stroke-width:1.5;" width="4" x="859.5" y="374.58"/><text fill="#000000" font-family="sans-serif" font-size="14" lengthAdjust="spacing" textLength="167" x="689.5" y="396.5751">Original_ECLHeroBanner</text><!--MD5=[52c64224146f94316923a766552a18bb]
entity Original_ECLmenu--><rect fill="#FFFFFF" filter="url(#fuv0frx8bo4a)" height="46.2969" style="stroke:#A80036;stroke-width:1.5;" width="164" x="430" y="363.58"/><rect fill="#FFFFFF" height="10" style="stroke:#A80036;stroke-width:1.5;" width="15" x="574" y="368.58"/><rect fill="#FFFFFF" height="2" style="stroke:#A80036;stroke-width:1.5;" width="4" x="572" y="370.58"/><rect fill="#FFFFFF" height="2" style="stroke:#A80036;stroke-width:1.5;" width="4" x="572" y="374.58"/><text fill="#000000" font-family="sans-serif" font-size="14" lengthAdjust="spacing" textLength="124" x="445" y="396.5751">Original_ECLmenu</text><!--MD5=[299e05bc4826bca11d48ef5b4ce276e2]
entity Chart_--><rect fill="#FFFFFF" filter="url(#fuv0frx8bo4a)" height="46.2969" style="stroke:#A80036;stroke-width:1.5;" width="84" x="348" y="592.58"/><rect fill="#FFFFFF" height="10" style="stroke:#A80036;stroke-width:1.5;" width="15" x="412" y="597.58"/><rect fill="#FFFFFF" height="2" style="stroke:#A80036;stroke-width:1.5;" width="4" x="410" y="599.58"/><rect fill="#FFFFFF" height="2" style="stroke:#A80036;stroke-width:1.5;" width="4" x="410" y="603.58"/><text fill="#000000" font-family="sans-serif" font-size="14" lengthAdjust="spacing" textLength="44" x="363" y="625.5751">Chart_</text><!--MD5=[4c6d9b30b127daf6ae5654c77b0597a3]
entity tooltips--><rect fill="#FFFFFF" filter="url(#fuv0frx8bo4a)" height="46.2969" style="stroke:#A80036;stroke-width:1.5;" width="91" x="186.5" y="592.58"/><rect fill="#FFFFFF" height="10" style="stroke:#A80036;stroke-width:1.5;" width="15" x="257.5" y="597.58"/><rect fill="#FFFFFF" height="2" style="stroke:#A80036;stroke-width:1.5;" width="4" x="255.5" y="599.58"/><rect fill="#FFFFFF" height="2" style="stroke:#A80036;stroke-width:1.5;" width="4" x="255.5" y="603.58"/><text fill="#000000" font-family="sans-serif" font-size="14" lengthAdjust="spacing" textLength="51" x="201.5" y="625.5751">tooltips</text><!--MD5=[31745d50804ef5bdd7710f25746e2ef8]
entity range_--><rect fill="#FFFFFF" filter="url(#fuv0frx8bo4a)" height="46.2969" style="stroke:#A80036;stroke-width:1.5;" width="87" x="64.5" y="592.58"/><rect fill="#FFFFFF" height="10" style="stroke:#A80036;stroke-width:1.5;" width="15" x="131.5" y="597.58"/><rect fill="#FFFFFF" height="2" style="stroke:#A80036;stroke-width:1.5;" width="4" x="129.5" y="599.58"/><rect fill="#FFFFFF" height="2" style="stroke:#A80036;stroke-width:1.5;" width="4" x="129.5" y="603.58"/><text fill="#000000" font-family="sans-serif" font-size="14" lengthAdjust="spacing" textLength="47" x="79.5" y="625.5751">range_</text><!--MD5=[88771e57dfb3d1beb433943e87849cd0]
entity geoSelect--><rect fill="#FFFFFF" filter="url(#fuv0frx8bo4a)" height="46.2969" style="stroke:#A80036;stroke-width:1.5;" width="110" x="224" y="363.58"/><rect fill="#FFFFFF" height="10" style="stroke:#A80036;stroke-width:1.5;" width="15" x="314" y="368.58"/><rect fill="#FFFFFF" height="2" style="stroke:#A80036;stroke-width:1.5;" width="4" x="312" y="370.58"/><rect fill="#FFFFFF" height="2" style="stroke:#A80036;stroke-width:1.5;" width="4" x="312" y="374.58"/><text fill="#000000" font-family="sans-serif" font-size="14" lengthAdjust="spacing" textLength="70" x="239" y="396.5751">geoSelect</text><!--MD5=[8bd8a742f927c31bb225f4d2aa6f5c30]
entity select_--><rect fill="#FFFFFF" filter="url(#fuv0frx8bo4a)" height="46.2969" style="stroke:#A80036;stroke-width:1.5;" width="89" x="99.5" y="363.58"/><rect fill="#FFFFFF" height="10" style="stroke:#A80036;stroke-width:1.5;" width="15" x="168.5" y="368.58"/><rect fill="#FFFFFF" height="2" style="stroke:#A80036;stroke-width:1.5;" width="4" x="166.5" y="370.58"/><rect fill="#FFFFFF" height="2" style="stroke:#A80036;stroke-width:1.5;" width="4" x="166.5" y="374.58"/><text fill="#000000" font-family="sans-serif" font-size="14" lengthAdjust="spacing" textLength="49" x="114.5" y="396.5751">select_</text><!--MD5=[f5e88d4a97e9e158b7d3f6a550dfae70]
entity Fetcher--><rect fill="#FFFFFF" filter="url(#fuv0frx8bo4a)" height="46.2969" style="stroke:#A80036;stroke-width:1.5;" width="93" x="1114.5" y="592.58"/><rect fill="#FFFFFF" height="10" style="stroke:#A80036;stroke-width:1.5;" width="15" x="1187.5" y="597.58"/><rect fill="#FFFFFF" height="2" style="stroke:#A80036;stroke-width:1.5;" width="4" x="1185.5" y="599.58"/><rect fill="#FFFFFF" height="2" style="stroke:#A80036;stroke-width:1.5;" width="4" x="1185.5" y="603.58"/><text fill="#000000" font-family="sans-serif" font-size="14" lengthAdjust="spacing" textLength="53" x="1129.5" y="625.5751">Fetcher</text><!--MD5=[7f9f4711078368d3dc6cd9fa3410ab25]
entity Pipeline_--><rect fill="#FFFFFF" filter="url(#fuv0frx8bo4a)" height="46.2969" style="stroke:#A80036;stroke-width:1.5;" width="101" x="1242.5" y="592.58"/><rect fill="#FFFFFF" height="10" style="stroke:#A80036;stroke-width:1.5;" width="15" x="1323.5" y="597.58"/><rect fill="#FFFFFF" height="2" style="stroke:#A80036;stroke-width:1.5;" width="4" x="1321.5" y="599.58"/><rect fill="#FFFFFF" height="2" style="stroke:#A80036;stroke-width:1.5;" width="4" x="1321.5" y="603.58"/><text fill="#000000" font-family="sans-serif" font-size="14" lengthAdjust="spacing" textLength="61" x="1257.5" y="625.5751">Pipeline_</text><!--MD5=[bc6ec2dece2ccb258938d9195ba099c8]
entity PipelineProcessors--><rect fill="#FFFFFF" filter="url(#fuv0frx8bo4a)" height="46.2969" style="stroke:#A80036;stroke-width:1.5;" width="172" x="1379" y="592.58"/><rect fill="#FFFFFF" height="10" style="stroke:#A80036;stroke-width:1.5;" width="15" x="1531" y="597.58"/><rect fill="#FFFFFF" height="2" style="stroke:#A80036;stroke-width:1.5;" width="4" x="1529" y="599.58"/><rect fill="#FFFFFF" height="2" style="stroke:#A80036;stroke-width:1.5;" width="4" x="1529" y="603.58"/><text fill="#000000" font-family="sans-serif" font-size="14" lengthAdjust="spacing" textLength="132" x="1394" y="625.5751">PipelineProcessors</text><!--MD5=[7f2f8f021ba496bad1f94a1981c7f515]
entity Cache--><rect fill="#FFFFFF" filter="url(#fuv0frx8bo4a)" height="46.2969" style="stroke:#A80036;stroke-width:1.5;" width="84" x="1586" y="592.58"/><rect fill="#FFFFFF" height="10" style="stroke:#A80036;stroke-width:1.5;" width="15" x="1650" y="597.58"/><rect fill="#FFFFFF" height="2" style="stroke:#A80036;stroke-width:1.5;" width="4" x="1648" y="599.58"/><rect fill="#FFFFFF" height="2" style="stroke:#A80036;stroke-width:1.5;" width="4" x="1648" y="603.58"/><text fill="#000000" font-family="sans-serif" font-size="14" lengthAdjust="spacing" textLength="44" x="1601" y="625.5751">Cache</text><!--MD5=[78504a686ec0d5d0664efa6ee46c949a]
entity Url--><rect fill="#FFFFFF" filter="url(#fuv0frx8bo4a)" height="46.2969" style="stroke:#A80036;stroke-width:1.5;" width="58" x="1021" y="592.58"/><rect fill="#FFFFFF" height="10" style="stroke:#A80036;stroke-width:1.5;" width="15" x="1059" y="597.58"/><rect fill="#FFFFFF" height="2" style="stroke:#A80036;stroke-width:1.5;" width="4" x="1057" y="599.58"/><rect fill="#FFFFFF" height="2" style="stroke:#A80036;stroke-width:1.5;" width="4" x="1057" y="603.58"/><text fill="#000000" font-family="sans-serif" font-size="14" lengthAdjust="spacing" textLength="18" x="1036" y="625.5751">Url</text><!--MD5=[14d2404cdfa90132962e7494b8b51028]
entity magicStrings--><rect fill="#FFFFFF" filter="url(#fuv0frx8bo4a)" height="46.2969" style="stroke:#A80036;stroke-width:1.5;" width="129" x="1284.5" y="99.58"/><rect fill="#FFFFFF" height="10" style="stroke:#A80036;stroke-width:1.5;" width="15" x="1393.5" y="104.58"/><rect fill="#FFFFFF" height="2" style="stroke:#A80036;stroke-width:1.5;" width="4" x="1391.5" y="106.58"/><rect fill="#FFFFFF" height="2" style="stroke:#A80036;stroke-width:1.5;" width="4" x="1391.5" y="110.58"/><text fill="#000000" font-family="sans-serif" font-size="14" lengthAdjust="spacing" textLength="89" x="1299.5" y="132.5751">magicStrings</text><path d="M893.5,781.58 L893.5,912.6425 L1078.5,912.6425 L1078.5,791.58 L1068.5,781.58 L893.5,781.58 " fill="#FBFB77" filter="url(#fuv0frx8bo4a)" style="stroke:#A80036;stroke-width:1.0;"/><path d="M1068.5,781.58 L1068.5,791.58 L1078.5,791.58 L1068.5,781.58 " fill="#FBFB77" style="stroke:#A80036;stroke-width:1.0;"/><text fill="#000000" font-family="sans-serif" font-size="13" lengthAdjust="spacing" textLength="103" x="899.5" y="798.6469">"_" means, it's a</text><text fill="#000000" font-family="sans-serif" font-size="13" lengthAdjust="spacing" textLength="127" x="899.5" y="813.7797">general Component</text><text fill="#000000" font-family="sans-serif" font-size="13" lengthAdjust="spacing" textLength="135" x="899.5" y="828.9125">or a WebComponent.</text><text fill="#000000" font-family="sans-serif" font-size="13" lengthAdjust="spacing" textLength="120" x="899.5" y="844.0453">(i.e. git subproject)</text><text fill="#000000" font-family="sans-serif" font-size="13" lengthAdjust="spacing" textLength="0" x="903.5" y="859.1781"/><text fill="#000000" font-family="sans-serif" font-size="13" lengthAdjust="spacing" textLength="161" x="899.5" y="874.311">Some PipelineProcessors</text><text fill="#000000" font-family="sans-serif" font-size="13" lengthAdjust="spacing" textLength="161" x="899.5" y="889.4438">are general components,</text><text fill="#000000" font-family="sans-serif" font-size="13" lengthAdjust="spacing" textLength="164" x="899.5" y="904.5766">some are project specific.</text><path d="M1462,102.58 L1462,142.8456 L1576,142.8456 L1576,112.58 L1566,102.58 L1462,102.58 " fill="#FBFB77" filter="url(#fuv0frx8bo4a)" style="stroke:#A80036;stroke-width:1.0;"/><path d="M1566,102.58 L1566,112.58 L1576,112.58 L1566,102.58 " fill="#FBFB77" style="stroke:#A80036;stroke-width:1.0;"/><text fill="#000000" font-family="sans-serif" font-size="13" lengthAdjust="spacing" textLength="93" x="1468" y="119.6469">Every package</text><text fill="#000000" font-family="sans-serif" font-size="13" lengthAdjust="spacing" textLength="82" x="1468" y="134.7797">may use this</text><!--MD5=[6f979a405ee383209567941b42789478]
link selectBoxes to Card_--><path d="M69.2119,433.858 C69.2513,433.9746 69.2911,434.0911 69.3311,434.2075 C69.4911,434.6732 69.6556,435.1376 69.8245,435.6005 C70.1624,436.5264 70.5184,437.4461 70.8933,438.3577 C73.8925,445.65 78.105,452.4175 84,457.58 C160.05,524.15 241.7,415.18 309,490.58 C318.035,500.7025 322.8656,513.3525 325.0139,526.673 C326.088,533.3332 326.4916,540.1611 326.4148,546.9244 C326.4052,547.7698 326.3881,548.6142 326.3639,549.4572 " fill="none" id="selectBoxes-to-Card_" style="stroke:#A80036;stroke-width:1.0;"/><polygon fill="#A80036" points="326.3639,549.4572,330.6209,540.5758,326.5076,544.4592,322.6242,540.3459,326.3639,549.4572" style="stroke:#A80036;stroke-width:1.0;"/><text fill="#000000" font-family="sans-serif" font-size="13" lengthAdjust="spacing" textLength="95" x="302" y="478.6469">as slot content</text><!--MD5=[38e8dd14b00f6d076db5ff0fc1e1bf16]
link Fetcher to Pipeline_--><path d="M1207.66,615.58 C1217.5,615.58 1227.35,615.58 1237.19,615.58 " fill="none" id="Fetcher-to-Pipeline_" style="stroke:#A80036;stroke-width:1.0;"/><polygon fill="#A80036" points="1242.33,615.58,1233.33,611.58,1237.33,615.58,1233.33,619.58,1242.33,615.58" style="stroke:#A80036;stroke-width:1.0;"/><!--MD5=[590d9e57fa923bebd6444dacd1961b44]
link Pipeline_ to Cache--><path d="M1298.14,592.37 C1307.37,557.48 1330.53,493.53 1379.5,474.08 C1415.02,459.97 1515.98,459.97 1551.5,474.08 C1596.89,492.11 1615.97,551.55 1623.5,587.4 " fill="none" id="Pipeline_-to-Cache" style="stroke:#A80036;stroke-width:1.0;"/><polygon fill="#A80036" points="1624.53,592.51,1626.6496,582.8919,1623.5302,587.611,1618.8111,584.4916,1624.53,592.51" style="stroke:#A80036;stroke-width:1.0;"/><!--MD5=[c7d82abc17ea63cc82360dc5cd2ef56a]
link Pipeline_ to PipelineProcessors--><path d="M1343.73,615.58 C1353.68,615.58 1363.63,615.58 1373.58,615.58 " fill="none" id="Pipeline_-to-PipelineProcessors" style="stroke:#A80036;stroke-width:1.0;"/><polygon fill="#A80036" points="1378.78,615.58,1369.78,611.58,1373.78,615.58,1369.78,619.58,1378.78,615.58" style="stroke:#A80036;stroke-width:1.0;"/><!--MD5=[dfa6dc5814dc17acb9f83ca4bc904ae0]
link Main to View--><path d="M930,149.18 C930,165.4025 930,187.9575 930,212.7458 C930,218.9429 930,225.2795 930,231.6917 C930,232.4932 930,233.2959 930,234.0997 " fill="none" id="Main-to-View" style="stroke:#A80036;stroke-width:1.0;"/><polygon fill="#A80036" points="930,234.0997,934,225.0997,930,229.0997,926,225.0997,930,234.0997" style="stroke:#A80036;stroke-width:1.0;"/><text fill="#000000" font-family="sans-serif" font-size="13" lengthAdjust="spacing" textLength="75" x="931" y="206.6469">depends on</text><!--MD5=[6137f4216c2e3190e1b396a4f3f0263e]
link View to Model--><path d="M938.0643,420.2663 C938.1414,420.5788 938.2189,420.893 938.2968,421.2089 C938.6085,422.4724 938.9269,423.7628 939.2514,425.0783 C944.4441,446.1266 951.2281,473.6256 958.0113,501.1213 C964.7944,528.6169 971.5766,556.1091 976.7655,577.1436 C977.0898,578.4583 977.4079,579.7477 977.7193,581.0103 C977.7972,581.326 977.8747,581.64 977.9517,581.9522 " fill="none" id="View-to-Model" style="stroke:#A80036;stroke-width:1.0;"/><polygon fill="#A80036" points="977.9517,581.9522,979.6797,572.2562,976.7542,577.0978,971.9126,574.1722,977.9517,581.9522" style="stroke:#A80036;stroke-width:1.0;"/><text fill="#000000" font-family="sans-serif" font-size="13" lengthAdjust="spacing" textLength="75" x="953" y="478.6469">depends on</text><!--MD5=[e12dee6fdf8718095addc9fb0c46217d]
link Model to GMN31--><path d="M986,662.7943 C986,663.261 986,663.7302 986,664.2016 C986,667.9735 986,671.8945 986,675.9363 C986,708.27 986,748.325 986,781.45 " fill="none" id="Model-GMN31" style="stroke:#A80036;stroke-width:1.0;stroke-dasharray:7.0,7.0;"/><!--MD5=[58733acbbe7f823516aa1fb8b4c34d45]
link Common to GMN34--><path d="M1257.4902,56.1395 C1257.6172,55.8219 1257.7459,55.5053 1257.8764,55.1897 C1258.1374,54.5586 1258.4055,53.9318 1258.681,53.3098 C1259.7828,50.8217 1261.002,48.41 1262.3503,46.1056 C1267.7437,36.8881 1275.205,29.3875 1285.5,25.58 C1338.44,6 1359.56,6 1412.5,25.58 C1452.61,40.42 1486.65,78.71 1504.84,102.51 " fill="none" id="Common-GMN34" style="stroke:#A80036;stroke-width:1.0;stroke-dasharray:7.0,7.0;"/><!--MD5=[87baebdb46667ba93e03212cca39e216]
@startuml components


package Main {
}

package View {
  component eclLikeHeroBanner {
      component Original_ECLHeroBanner {
      }
  }

  component MainMenu {
    component eclLikeMenu_ {
      component Original_ECLmenu {
      }
    }   
  }

  component Cards {
    component Card_ {
      component Chart_ {
      }
    }
    component tooltips {
    }
    component range_ {
    }
  }


  component selectBoxes {
    component geoSelect {
    }
    component select_ {
    }
  }

}

package Model {
  component Fetcher {
  }
  component Pipeline_ {
  }
  component PipelineProcessors {
  }
  component Cache {
  }
  component Url {
  }
}

package Common {
  component magicStrings {
  }
}


selectBoxes - -> Card_: as slot content

Fetcher -> Pipeline_
Pipeline_ -> Cache
Pipeline_ -> PipelineProcessors

Main - -> View: depends on
View - -> Model: depends on


note bottom of Model
"_" means, it's a 
general Component 
or a WebComponent.
(i.e. git subproject)

Some PipelineProcessors
are general components,
some are project specific.
end note

note right of Common
Every package
may use this
end note


@enduml

PlantUML version 1.2021.00(Sun Jan 10 11:25:05 CET 2021)
(MIT source distribution)
Java Runtime: OpenJDK Runtime Environment
JVM: OpenJDK 64-Bit Server VM
Default Encoding: UTF-8
Language: en
Country: GB
--></g></svg>