<?xml version="1.0" encoding="UTF-8" standalone="no"?><svg xmlns="http://www.w3.org/2000/svg" xmlns:xlink="http://www.w3.org/1999/xlink" contentScriptType="application/ecmascript" contentStyleType="text/css" height="854px" preserveAspectRatio="none" style="width:1390px;height:854px;" version="1.1" viewBox="0 0 1390 854" width="1390px" zoomAndPan="magnify"><defs><filter height="300%" id="f1dw3jge1ujpaj" width="300%" x="-1" y="-1"><feGaussianBlur result="blurOut" stdDeviation="2.0"/><feColorMatrix in="blurOut" result="blurOut2" type="matrix" values="0 0 0 0 0 0 0 0 0 0 0 0 0 0 0 0 0 0 .4 0"/><feOffset dx="4.0" dy="4.0" in="blurOut2" result="blurOut3"/><feBlend in="SourceGraphic" in2="blurOut3" mode="normal"/></filter></defs><g><!--MD5=[e320b41f2d43b11d6de1346cab4ea5fc]
cluster View--><polygon fill="#FFFFFF" filter="url(#f1dw3jge1ujpaj)" points="90.5,234.58,135.5,234.58,142.5,256.8769,1373.5,256.8769,1373.5,481.58,90.5,481.58,90.5,234.58" style="stroke:#000000;stroke-width:1.5;"/><line style="stroke:#000000;stroke-width:1.5;" x1="90.5" x2="142.5" y1="256.8769" y2="256.8769"/><text fill="#000000" font-family="sans-serif" font-size="14" font-weight="bold" lengthAdjust="spacing" textLength="39" x="94.5" y="249.5751">View</text><!--MD5=[bb2be780243ae1b1b2d733b4bcc355f7]
cluster eclLikeHeroBanner--><rect fill="#FFFFFF" filter="url(#f1dw3jge1ujpaj)" height="97" style="stroke:#000000;stroke-width:1.5;" width="240" x="1101.5" y="328.58"/><rect fill="#FFFFFF" height="10" style="stroke:#000000;stroke-width:1.5;" width="15" x="1321.5" y="333.58"/><rect fill="#FFFFFF" height="2" style="stroke:#000000;stroke-width:1.5;" width="4" x="1319.5" y="335.58"/><rect fill="#FFFFFF" height="2" style="stroke:#000000;stroke-width:1.5;" width="4" x="1319.5" y="339.58"/><text fill="#000000" font-family="sans-serif" font-size="14" font-weight="bold" lengthAdjust="spacing" textLength="149" x="1147" y="354.5751">eclLikeHeroBanner</text><!--MD5=[ca4b19208bd672832559a970540e55a9]
cluster MainMenu--><rect fill="#FFFFFF" filter="url(#f1dw3jge1ujpaj)" height="164" style="stroke:#000000;stroke-width:1.5;" width="244" x="833.5" y="285.58"/><rect fill="#FFFFFF" height="10" style="stroke:#000000;stroke-width:1.5;" width="15" x="1057.5" y="290.58"/><rect fill="#FFFFFF" height="2" style="stroke:#000000;stroke-width:1.5;" width="4" x="1055.5" y="292.58"/><rect fill="#FFFFFF" height="2" style="stroke:#000000;stroke-width:1.5;" width="4" x="1055.5" y="296.58"/><text fill="#000000" font-family="sans-serif" font-size="14" font-weight="bold" lengthAdjust="spacing" textLength="79" x="916" y="311.5751">MainMenu</text><!--MD5=[52b0ed41cd28ba9a7958b518eaee16cc]
cluster eclLikeMenu_--><rect fill="#FFFFFF" filter="url(#f1dw3jge1ujpaj)" height="97" style="stroke:#000000;stroke-width:1.5;" width="196" x="857.5" y="328.58"/><rect fill="#FFFFFF" height="10" style="stroke:#000000;stroke-width:1.5;" width="15" x="1033.5" y="333.58"/><rect fill="#FFFFFF" height="2" style="stroke:#000000;stroke-width:1.5;" width="4" x="1031.5" y="335.58"/><rect fill="#FFFFFF" height="2" style="stroke:#000000;stroke-width:1.5;" width="4" x="1031.5" y="339.58"/><text fill="#000000" font-family="sans-serif" font-size="14" font-weight="bold" lengthAdjust="spacing" textLength="105" x="903" y="354.5751">eclLikeMenu_</text><!--MD5=[b2d8dd16e98fb2282b816f7db019e7ea]
cluster Cards--><rect fill="#FFFFFF" filter="url(#f1dw3jge1ujpaj)" height="164" style="stroke:#000000;stroke-width:1.5;" width="389" x="420.5" y="285.58"/><rect fill="#FFFFFF" height="10" style="stroke:#000000;stroke-width:1.5;" width="15" x="789.5" y="290.58"/><rect fill="#FFFFFF" height="2" style="stroke:#000000;stroke-width:1.5;" width="4" x="787.5" y="292.58"/><rect fill="#FFFFFF" height="2" style="stroke:#000000;stroke-width:1.5;" width="4" x="787.5" y="296.58"/><text fill="#000000" font-family="sans-serif" font-size="14" font-weight="bold" lengthAdjust="spacing" textLength="46" x="592" y="311.5751">Cards</text><!--MD5=[4009100477e7d8ebb5cc7220793724ec]
cluster Card_--><rect fill="#FFFFFF" filter="url(#f1dw3jge1ujpaj)" height="97" style="stroke:#000000;stroke-width:1.5;" width="116" x="669.5" y="328.58"/><rect fill="#FFFFFF" height="10" style="stroke:#000000;stroke-width:1.5;" width="15" x="765.5" y="333.58"/><rect fill="#FFFFFF" height="2" style="stroke:#000000;stroke-width:1.5;" width="4" x="763.5" y="335.58"/><rect fill="#FFFFFF" height="2" style="stroke:#000000;stroke-width:1.5;" width="4" x="763.5" y="339.58"/><text fill="#000000" font-family="sans-serif" font-size="14" font-weight="bold" lengthAdjust="spacing" textLength="44" x="705.5" y="354.5751">Card_</text><!--MD5=[72e444dd84a107dc9552adecbceb9b34]
cluster selectBoxes--><rect fill="#FFFFFF" filter="url(#f1dw3jge1ujpaj)" height="97" style="stroke:#000000;stroke-width:1.5;" width="266" x="130.5" y="328.58"/><rect fill="#FFFFFF" height="10" style="stroke:#000000;stroke-width:1.5;" width="15" x="376.5" y="333.58"/><rect fill="#FFFFFF" height="2" style="stroke:#000000;stroke-width:1.5;" width="4" x="374.5" y="335.58"/><rect fill="#FFFFFF" height="2" style="stroke:#000000;stroke-width:1.5;" width="4" x="374.5" y="339.58"/><text fill="#000000" font-family="sans-serif" font-size="14" font-weight="bold" lengthAdjust="spacing" textLength="96" x="215.5" y="354.5751">selectBoxes</text><!--MD5=[15636c1ca4a123c16a2a1a8e90aca7a9]
cluster Model--><polygon fill="#FFFFFF" filter="url(#f1dw3jge1ujpaj)" points="90.5,546.58,143.5,546.58,150.5,568.8769,806.5,568.8769,806.5,659.58,90.5,659.58,90.5,546.58" style="stroke:#000000;stroke-width:1.5;"/><line style="stroke:#000000;stroke-width:1.5;" x1="90.5" x2="150.5" y1="568.8769" y2="568.8769"/><text fill="#000000" font-family="sans-serif" font-size="14" font-weight="bold" lengthAdjust="spacing" textLength="47" x="94.5" y="561.5751">Model</text><!--MD5=[54bb6d7a037149ef75f792f06aa0aa50]
cluster Common--><polygon fill="#FFFFFF" filter="url(#f1dw3jge1ujpaj)" points="664.5,56.58,739.5,56.58,746.5,78.8769,861.5,78.8769,861.5,169.58,664.5,169.58,664.5,56.58" style="stroke:#000000;stroke-width:1.5;"/><line style="stroke:#000000;stroke-width:1.5;" x1="664.5" x2="746.5" y1="78.8769" y2="78.8769"/><text fill="#000000" font-family="sans-serif" font-size="14" font-weight="bold" lengthAdjust="spacing" textLength="69" x="668.5" y="71.5751">Common</text><polygon fill="#FFFFFF" filter="url(#f1dw3jge1ujpaj)" points="70.5,96.08,112.5,96.08,119.5,118.3769,126.5,118.3769,126.5,148.6738,70.5,148.6738,70.5,96.08" style="stroke:#000000;stroke-width:1.5;"/><line style="stroke:#000000;stroke-width:1.5;" x1="70.5" x2="119.5" y1="118.3769" y2="118.3769"/><text fill="#000000" font-family="sans-serif" font-size="14" font-weight="bold" lengthAdjust="spacing" textLength="36" x="74.5" y="111.0751">Main</text><!--MD5=[da0313d0064701e95eff61d1185e58f7]
entity Original_ECLHeroBanner--><rect fill="#FFFFFF" filter="url(#f1dw3jge1ujpaj)" height="46.2969" style="stroke:#A80036;stroke-width:1.5;" width="207" x="1118" y="363.58"/><rect fill="#FFFFFF" height="10" style="stroke:#A80036;stroke-width:1.5;" width="15" x="1305" y="368.58"/><rect fill="#FFFFFF" height="2" style="stroke:#A80036;stroke-width:1.5;" width="4" x="1303" y="370.58"/><rect fill="#FFFFFF" height="2" style="stroke:#A80036;stroke-width:1.5;" width="4" x="1303" y="374.58"/><text fill="#000000" font-family="sans-serif" font-size="14" lengthAdjust="spacing" textLength="167" x="1133" y="396.5751">Original_ECLHeroBanner</text><!--MD5=[52c64224146f94316923a766552a18bb]
entity Original_ECLmenu--><rect fill="#FFFFFF" filter="url(#f1dw3jge1ujpaj)" height="46.2969" style="stroke:#A80036;stroke-width:1.5;" width="164" x="873.5" y="363.58"/><rect fill="#FFFFFF" height="10" style="stroke:#A80036;stroke-width:1.5;" width="15" x="1017.5" y="368.58"/><rect fill="#FFFFFF" height="2" style="stroke:#A80036;stroke-width:1.5;" width="4" x="1015.5" y="370.58"/><rect fill="#FFFFFF" height="2" style="stroke:#A80036;stroke-width:1.5;" width="4" x="1015.5" y="374.58"/><text fill="#000000" font-family="sans-serif" font-size="14" lengthAdjust="spacing" textLength="124" x="888.5" y="396.5751">Original_ECLmenu</text><!--MD5=[299e05bc4826bca11d48ef5b4ce276e2]
entity Chart_--><rect fill="#FFFFFF" filter="url(#f1dw3jge1ujpaj)" height="46.2969" style="stroke:#A80036;stroke-width:1.5;" width="84" x="685.5" y="363.58"/><rect fill="#FFFFFF" height="10" style="stroke:#A80036;stroke-width:1.5;" width="15" x="749.5" y="368.58"/><rect fill="#FFFFFF" height="2" style="stroke:#A80036;stroke-width:1.5;" width="4" x="747.5" y="370.58"/><rect fill="#FFFFFF" height="2" style="stroke:#A80036;stroke-width:1.5;" width="4" x="747.5" y="374.58"/><text fill="#000000" font-family="sans-serif" font-size="14" lengthAdjust="spacing" textLength="44" x="700.5" y="396.5751">Chart_</text><!--MD5=[4c6d9b30b127daf6ae5654c77b0597a3]
entity tooltips--><rect fill="#FFFFFF" filter="url(#f1dw3jge1ujpaj)" height="46.2969" style="stroke:#A80036;stroke-width:1.5;" width="91" x="559" y="363.58"/><rect fill="#FFFFFF" height="10" style="stroke:#A80036;stroke-width:1.5;" width="15" x="630" y="368.58"/><rect fill="#FFFFFF" height="2" style="stroke:#A80036;stroke-width:1.5;" width="4" x="628" y="370.58"/><rect fill="#FFFFFF" height="2" style="stroke:#A80036;stroke-width:1.5;" width="4" x="628" y="374.58"/><text fill="#000000" font-family="sans-serif" font-size="14" lengthAdjust="spacing" textLength="51" x="574" y="396.5751">tooltips</text><!--MD5=[31745d50804ef5bdd7710f25746e2ef8]
entity range_--><rect fill="#FFFFFF" filter="url(#f1dw3jge1ujpaj)" height="46.2969" style="stroke:#A80036;stroke-width:1.5;" width="87" x="437" y="363.58"/><rect fill="#FFFFFF" height="10" style="stroke:#A80036;stroke-width:1.5;" width="15" x="504" y="368.58"/><rect fill="#FFFFFF" height="2" style="stroke:#A80036;stroke-width:1.5;" width="4" x="502" y="370.58"/><rect fill="#FFFFFF" height="2" style="stroke:#A80036;stroke-width:1.5;" width="4" x="502" y="374.58"/><text fill="#000000" font-family="sans-serif" font-size="14" lengthAdjust="spacing" textLength="47" x="452" y="396.5751">range_</text><!--MD5=[88771e57dfb3d1beb433943e87849cd0]
entity geoSelect--><rect fill="#FFFFFF" filter="url(#f1dw3jge1ujpaj)" height="46.2969" style="stroke:#A80036;stroke-width:1.5;" width="110" x="270.5" y="363.58"/><rect fill="#FFFFFF" height="10" style="stroke:#A80036;stroke-width:1.5;" width="15" x="360.5" y="368.58"/><rect fill="#FFFFFF" height="2" style="stroke:#A80036;stroke-width:1.5;" width="4" x="358.5" y="370.58"/><rect fill="#FFFFFF" height="2" style="stroke:#A80036;stroke-width:1.5;" width="4" x="358.5" y="374.58"/><text fill="#000000" font-family="sans-serif" font-size="14" lengthAdjust="spacing" textLength="70" x="285.5" y="396.5751">geoSelect</text><!--MD5=[8bd8a742f927c31bb225f4d2aa6f5c30]
entity select_--><rect fill="#FFFFFF" filter="url(#f1dw3jge1ujpaj)" height="46.2969" style="stroke:#A80036;stroke-width:1.5;" width="89" x="146" y="363.58"/><rect fill="#FFFFFF" height="10" style="stroke:#A80036;stroke-width:1.5;" width="15" x="215" y="368.58"/><rect fill="#FFFFFF" height="2" style="stroke:#A80036;stroke-width:1.5;" width="4" x="213" y="370.58"/><rect fill="#FFFFFF" height="2" style="stroke:#A80036;stroke-width:1.5;" width="4" x="213" y="374.58"/><text fill="#000000" font-family="sans-serif" font-size="14" lengthAdjust="spacing" textLength="49" x="161" y="396.5751">select_</text><!--MD5=[f5e88d4a97e9e158b7d3f6a550dfae70]
entity Fetcher--><rect fill="#FFFFFF" filter="url(#f1dw3jge1ujpaj)" height="46.2969" style="stroke:#A80036;stroke-width:1.5;" width="93" x="227" y="589.58"/><rect fill="#FFFFFF" height="10" style="stroke:#A80036;stroke-width:1.5;" width="15" x="300" y="594.58"/><rect fill="#FFFFFF" height="2" style="stroke:#A80036;stroke-width:1.5;" width="4" x="298" y="596.58"/><rect fill="#FFFFFF" height="2" style="stroke:#A80036;stroke-width:1.5;" width="4" x="298" y="600.58"/><text fill="#000000" font-family="sans-serif" font-size="14" lengthAdjust="spacing" textLength="53" x="242" y="622.5751">Fetcher</text><!--MD5=[7f9f4711078368d3dc6cd9fa3410ab25]
entity Pipeline_--><rect fill="#FFFFFF" filter="url(#f1dw3jge1ujpaj)" height="46.2969" style="stroke:#A80036;stroke-width:1.5;" width="101" x="355" y="589.58"/><rect fill="#FFFFFF" height="10" style="stroke:#A80036;stroke-width:1.5;" width="15" x="436" y="594.58"/><rect fill="#FFFFFF" height="2" style="stroke:#A80036;stroke-width:1.5;" width="4" x="434" y="596.58"/><rect fill="#FFFFFF" height="2" style="stroke:#A80036;stroke-width:1.5;" width="4" x="434" y="600.58"/><text fill="#000000" font-family="sans-serif" font-size="14" lengthAdjust="spacing" textLength="61" x="370" y="622.5751">Pipeline_</text><!--MD5=[bc6ec2dece2ccb258938d9195ba099c8]
entity PipelineProcessors--><rect fill="#FFFFFF" filter="url(#f1dw3jge1ujpaj)" height="46.2969" style="stroke:#A80036;stroke-width:1.5;" width="172" x="491.5" y="589.58"/><rect fill="#FFFFFF" height="10" style="stroke:#A80036;stroke-width:1.5;" width="15" x="643.5" y="594.58"/><rect fill="#FFFFFF" height="2" style="stroke:#A80036;stroke-width:1.5;" width="4" x="641.5" y="596.58"/><rect fill="#FFFFFF" height="2" style="stroke:#A80036;stroke-width:1.5;" width="4" x="641.5" y="600.58"/><text fill="#000000" font-family="sans-serif" font-size="14" lengthAdjust="spacing" textLength="132" x="506.5" y="622.5751">PipelineProcessors</text><!--MD5=[7f2f8f021ba496bad1f94a1981c7f515]
entity Cache--><rect fill="#FFFFFF" filter="url(#f1dw3jge1ujpaj)" height="46.2969" style="stroke:#A80036;stroke-width:1.5;" width="84" x="698.5" y="589.58"/><rect fill="#FFFFFF" height="10" style="stroke:#A80036;stroke-width:1.5;" width="15" x="762.5" y="594.58"/><rect fill="#FFFFFF" height="2" style="stroke:#A80036;stroke-width:1.5;" width="4" x="760.5" y="596.58"/><rect fill="#FFFFFF" height="2" style="stroke:#A80036;stroke-width:1.5;" width="4" x="760.5" y="600.58"/><text fill="#000000" font-family="sans-serif" font-size="14" lengthAdjust="spacing" textLength="44" x="713.5" y="622.5751">Cache</text><!--MD5=[78504a686ec0d5d0664efa6ee46c949a]
entity Url--><rect fill="#FFFFFF" filter="url(#f1dw3jge1ujpaj)" height="46.2969" style="stroke:#A80036;stroke-width:1.5;" width="58" x="133.5" y="589.58"/><rect fill="#FFFFFF" height="10" style="stroke:#A80036;stroke-width:1.5;" width="15" x="171.5" y="594.58"/><rect fill="#FFFFFF" height="2" style="stroke:#A80036;stroke-width:1.5;" width="4" x="169.5" y="596.58"/><rect fill="#FFFFFF" height="2" style="stroke:#A80036;stroke-width:1.5;" width="4" x="169.5" y="600.58"/><text fill="#000000" font-family="sans-serif" font-size="14" lengthAdjust="spacing" textLength="18" x="148.5" y="622.5751">Url</text><!--MD5=[14d2404cdfa90132962e7494b8b51028]
entity magicStrings--><rect fill="#FFFFFF" filter="url(#f1dw3jge1ujpaj)" height="46.2969" style="stroke:#A80036;stroke-width:1.5;" width="129" x="708" y="99.58"/><rect fill="#FFFFFF" height="10" style="stroke:#A80036;stroke-width:1.5;" width="15" x="817" y="104.58"/><rect fill="#FFFFFF" height="2" style="stroke:#A80036;stroke-width:1.5;" width="4" x="815" y="106.58"/><rect fill="#FFFFFF" height="2" style="stroke:#A80036;stroke-width:1.5;" width="4" x="815" y="110.58"/><text fill="#000000" font-family="sans-serif" font-size="14" lengthAdjust="spacing" textLength="89" x="723" y="132.5751">magicStrings</text><path d="M6,714.58 L6,845.6425 L191,845.6425 L191,724.58 L181,714.58 L6,714.58 " fill="#FBFB77" filter="url(#f1dw3jge1ujpaj)" style="stroke:#A80036;stroke-width:1.0;"/><path d="M181,714.58 L181,724.58 L191,724.58 L181,714.58 " fill="#FBFB77" style="stroke:#A80036;stroke-width:1.0;"/><text fill="#000000" font-family="sans-serif" font-size="13" lengthAdjust="spacing" textLength="103" x="12" y="731.6469">"_" means, it's a</text><text fill="#000000" font-family="sans-serif" font-size="13" lengthAdjust="spacing" textLength="127" x="12" y="746.7797">general Component</text><text fill="#000000" font-family="sans-serif" font-size="13" lengthAdjust="spacing" textLength="135" x="12" y="761.9125">or a WebComponent.</text><text fill="#000000" font-family="sans-serif" font-size="13" lengthAdjust="spacing" textLength="120" x="12" y="777.0453">(i.e. git subproject)</text><text fill="#000000" font-family="sans-serif" font-size="13" lengthAdjust="spacing" textLength="0" x="16" y="792.1781"/><text fill="#000000" font-family="sans-serif" font-size="13" lengthAdjust="spacing" textLength="161" x="12" y="807.311">Some PipelineProcessors</text><text fill="#000000" font-family="sans-serif" font-size="13" lengthAdjust="spacing" textLength="161" x="12" y="822.4438">are general components,</text><text fill="#000000" font-family="sans-serif" font-size="13" lengthAdjust="spacing" textLength="164" x="12" y="837.5766">some are project specific.</text><path d="M885.5,102.58 L885.5,142.8456 L999.5,142.8456 L999.5,112.58 L989.5,102.58 L885.5,102.58 " fill="#FBFB77" filter="url(#f1dw3jge1ujpaj)" style="stroke:#A80036;stroke-width:1.0;"/><path d="M989.5,102.58 L989.5,112.58 L999.5,112.58 L989.5,102.58 " fill="#FBFB77" style="stroke:#A80036;stroke-width:1.0;"/><text fill="#000000" font-family="sans-serif" font-size="13" lengthAdjust="spacing" textLength="93" x="891.5" y="119.6469">Every package</text><text fill="#000000" font-family="sans-serif" font-size="13" lengthAdjust="spacing" textLength="82" x="891.5" y="134.7797">may use this</text><!--MD5=[38e8dd14b00f6d076db5ff0fc1e1bf16]
link Fetcher to Pipeline_--><path d="M320.16,612.58 C330,612.58 339.85,612.58 349.69,612.58 " fill="none" id="Fetcher-to-Pipeline_" style="stroke:#A80036;stroke-width:1.0;"/><polygon fill="#A80036" points="354.83,612.58,345.83,608.58,349.83,612.58,345.83,616.58,354.83,612.58" style="stroke:#A80036;stroke-width:1.0;"/><!--MD5=[590d9e57fa923bebd6444dacd1961b44]
link Pipeline_ to Cache--><path d="M417.29,589.34 C431.25,564.85 457.1,527.94 492,514.08 C527.52,499.97 628.48,499.97 664,514.08 C695.32,526.52 716.83,560.23 728.88,584.76 " fill="none" id="Pipeline_-to-Cache" style="stroke:#A80036;stroke-width:1.0;"/><polygon fill="#A80036" points="731.17,589.54,730.8987,579.6949,729.0142,585.0286,723.6805,583.1441,731.17,589.54" style="stroke:#A80036;stroke-width:1.0;"/><!--MD5=[c7d82abc17ea63cc82360dc5cd2ef56a]
link Pipeline_ to PipelineProcessors--><path d="M456.23,612.58 C466.18,612.58 476.13,612.58 486.08,612.58 " fill="none" id="Pipeline_-to-PipelineProcessors" style="stroke:#A80036;stroke-width:1.0;"/><polygon fill="#A80036" points="491.28,612.58,482.28,608.58,486.28,612.58,482.28,616.58,491.28,612.58" style="stroke:#A80036;stroke-width:1.0;"/><!--MD5=[dfa6dc5814dc17acb9f83ca4bc904ae0]
link Main to View--><path d="M98.5,149.18 C98.5,165.4025 98.5,187.9575 98.5,212.7458 C98.5,218.9429 98.5,225.2795 98.5,231.6917 C98.5,232.4932 98.5,233.2959 98.5,234.0997 " fill="none" id="Main-to-View" style="stroke:#A80036;stroke-width:1.0;"/><polygon fill="#A80036" points="98.5,234.0997,102.5,225.0997,98.5,229.0997,94.5,225.0997,98.5,234.0997" style="stroke:#A80036;stroke-width:1.0;"/><text fill="#000000" font-family="sans-serif" font-size="13" lengthAdjust="spacing" textLength="75" x="99.5" y="206.6469">depends on</text><!--MD5=[6137f4216c2e3190e1b396a4f3f0263e]
link View to Model--><path d="M98.5,481.8821 C98.5,482.7205 98.5,483.5603 98.5,484.4012 C98.5,486.083 98.5,487.7695 98.5,489.4591 C98.5,492.8382 98.5,496.2298 98.5,499.6213 C98.5,513.1872 98.5,526.7523 98.5,539.5204 C98.5,541.1164 98.5,542.6999 98.5,544.2695 C98.5,544.6619 98.5,545.0534 98.5,545.444 C98.5,545.6393 98.5,545.8344 98.5,546.0293 " fill="none" id="View-to-Model" style="stroke:#A80036;stroke-width:1.0;"/><polygon fill="#A80036" points="98.5,546.0293,102.5,537.0293,98.5,541.0293,94.5,537.0293,98.5,546.0293" style="stroke:#A80036;stroke-width:1.0;"/><text fill="#000000" font-family="sans-serif" font-size="13" lengthAdjust="spacing" textLength="75" x="99.5" y="518.6469">depends on</text><!--MD5=[30d0e2eaf2a7e72ab5d72a5ac00f620f]
link Model to GMN30--><path d="M98.5,659.9523 C98.5,660.116 98.5,660.28 98.5,660.4442 C98.5,660.7727 98.5,661.1021 98.5,661.4324 C98.5,662.093 98.5,662.7572 98.5,663.4249 C98.5,668.7661 98.5,674.3259 98.5,679.992 C98.5,691.3244 98.5,703.0825 98.5,714.37 " fill="none" id="Model-GMN30" style="stroke:#A80036;stroke-width:1.0;stroke-dasharray:7.0,7.0;"/><!--MD5=[8e0139330ac72b3dd8e3980f31705c83]
link Common to GMN33--><path d="M680.9902,56.1395 C681.1172,55.8219 681.2459,55.5053 681.3764,55.1897 C681.6374,54.5586 681.9055,53.9318 682.181,53.3098 C683.2828,50.8217 684.502,48.41 685.8503,46.1056 C691.2438,36.8881 698.705,29.3875 709,25.58 C761.94,6 783.06,6 836,25.58 C876.11,40.42 910.15,78.71 928.34,102.51 " fill="none" id="Common-GMN33" style="stroke:#A80036;stroke-width:1.0;stroke-dasharray:7.0,7.0;"/><!--MD5=[75cff012adb022af361c6690b2c41648]
@startuml components


package Main {
}

package View {
  component eclLikeHeroBanner {
      component Original_ECLHeroBanner {
      }
  }

  component MainMenu {
    component eclLikeMenu_ {
      component Original_ECLmenu {
      }
    }   
  }

  component Cards {
    component Card_ {
      component Chart_ {
      }
    }
    component tooltips {
    }
    component range_ {
    }
  }


  component selectBoxes {
    component geoSelect {
    }
    component select_ {
    }
  }

}

package Model {
  component Fetcher {
  }
  component Pipeline_ {
  }
  component PipelineProcessors {
  }
  component Cache {
  }
  component Url {
  }
}

package Common {
  component magicStrings {
  }
}


Fetcher -> Pipeline_
Pipeline_ -> Cache
Pipeline_ -> PipelineProcessors

Main - -> View: depends on
View - -> Model: depends on


note bottom of Model
"_" means, it's a 
general Component 
or a WebComponent.
(i.e. git subproject)

Some PipelineProcessors
are general components,
some are project specific.
end note

note right of Common
Every package
may use this
end note


@enduml

PlantUML version 1.2021.00(Sun Jan 10 11:25:05 CET 2021)
(MIT source distribution)
Java Runtime: OpenJDK Runtime Environment
JVM: OpenJDK 64-Bit Server VM
Default Encoding: UTF-8
Language: en
Country: GB
--></g></svg>